name analog
datacolumns 19
datarows 59
range 0.301 0.33
endheader
time	ground_force_vx	ground_force_vy	ground_force_vz	ground_force_px	ground_force_py	ground_force_pz	l_ground_force_vx	l_ground_force_vy	l_ground_force_vz	l_ground_force_px	l_ground_force_py	l_ground_force_pz	ground_torque_x	ground_torque_y	ground_torque_z	l_ground_torque_x	l_ground_torque_y	l_ground_torque_z
0.301	-0.0	-0.0	-0.0	-0.0	-0.0	-0.0	-10.61101531982422	4.327762603759766	-1009.3179931640624	-0.0	-0.0	-0.0	-0.0	-0.0	-0.0	278339.6875	17425.3671875	-5140.57275390625
0.3015	-0.0	-0.0	-0.0	-0.0	-0.0	-0.0	-9.881348609924316	2.683950901031494	-1011.6018676757812	-0.0	-0.0	-0.0	-0.0	-0.0	-0.0	278574.1875	17681.4375	-4859.728515625
0.302	-0.0	-0.0	-0.0	-0.0	-0.0	-0.0	-8.994465827941895	0.8767924904823303	-1013.834716796875	-0.0	-0.0	-0.0	-0.0	-0.0	-0.0	278482.34375	17980.7578125	-4469.533203125
0.3025	-0.0	-0.0	-0.0	-0.0	-0.0	-0.0	-7.391421794891357	-1.0535167455673218	-1013.7492065429688	-0.0	-0.0	-0.0	-0.0	-0.0	-0.0	278888.34375	18463.890625	-4083.264404296875
0.303	-0.0	-0.0	-0.0	-0.0	-0.0	-0.0	-6.954362392425537	-2.25533390045166	-1014.9837646484376	-0.0	-0.0	-0.0	-0.0	-0.0	-0.0	278646.75	18748.0859375	-3905.28857421875
0.3035	-0.0	-0.0	-0.0	-0.0	-0.0	-0.0	-6.564598083496094	-1.866980791091919	-1015.7304077148438	-0.0	-0.0	-0.0	-0.0	-0.0	-0.0	278889.90625	19216.232421875	-3889.0791015625
0.304	-0.0	-0.0	-0.0	-0.0	-0.0	-0.0	-7.102885246276856	-1.3539962768554688	-1015.122802734375	-0.0	-0.0	-0.0	-0.0	-0.0	-0.0	278825.84375	19449.91015625	-4089.2353515625
0.3045	-0.0	-0.0	-0.0	-0.0	-0.0	-0.0	-7.587742328643799	-0.253136396408081	-1014.4951171875	-0.0	-0.0	-0.0	-0.0	-0.0	-0.0	278271.625	19678.736328125	-4395.73876953125
0.305	-0.0	-0.0	-0.0	-0.0	-0.0	-0.0	-8.43331527709961	0.2649650573730469	-1012.8887939453124	-0.0	-0.0	-0.0	-0.0	-0.0	-0.0	278136.34375	20182.212890625	-4635.45703125
0.3055	-0.0	-0.0	-0.0	-0.0	-0.0	-0.0	-9.63362979888916	0.7835984826087952	-1010.4224243164062	-0.0	-0.0	-0.0	-0.0	-0.0	-0.0	277604.59375	20491.43359375	-4994.00537109375
0.306	-0.0	-0.0	-0.0	-0.0	-0.0	-0.0	-10.692411422729492	1.84925639629364	-1010.4664916992188	-0.0	-0.0	-0.0	-0.0	-0.0	-0.0	277616.125	20549.244140625	-5334.60009765625
0.3065	-0.0	-0.0	-0.0	-0.0	-0.0	-0.0	-12.01209831237793	2.3268966674804688	-1011.1862182617188	-0.0	-0.0	-0.0	-0.0	-0.0	-0.0	277435.46875	20910.94921875	-5462.4736328125
0.307	-0.0	-0.0	-0.0	-0.0	-0.0	-0.0	-11.959882736206056	2.368683099746704	-1011.3070678710938	-0.0	-0.0	-0.0	-0.0	-0.0	-0.0	277305.15625	20965.05078125	-5291.6865234375
0.3075	-0.0	-0.0	-0.0	-0.0	-0.0	-0.0	-12.11162567138672	1.911878228187561	-1010.978759765625	-0.0	-0.0	-0.0	-0.0	-0.0	-0.0	277349.4375	20963.654296875	-5157.451171875
0.308	-0.0	-0.0	-0.0	-0.0	-0.0	-0.0	-11.53240203857422	1.9847038984298704	-1009.5618896484376	-0.0	-0.0	-0.0	-0.0	-0.0	-0.0	277091.84375	20933.8515625	-4794.1845703125
0.3085	-0.0	-0.0	-0.0	-0.0	-0.0	-0.0	-11.830368041992188	2.556342363357544	-1010.872802734375	-0.0	-0.0	-0.0	-0.0	-0.0	-0.0	276657.5625	21016.541015625	-4675.6640625
0.309	-0.0	-0.0	-0.0	-0.0	-0.0	-0.0	-12.251805305480955	3.0126118659973145	-1009.2131958007812	-0.0	-0.0	-0.0	-0.0	-0.0	-0.0	276235.15625	21338.466796875	-4579.45947265625
0.3095	-0.0	-0.0	-0.0	-0.0	-0.0	-0.0	-13.358088493347168	2.4682841300964355	-1005.8684692382812	-0.0	-0.0	-0.0	-0.0	-0.0	-0.0	275425.40625	21505.9453125	-4800.40869140625
0.31	-0.0	-0.0	-0.0	-0.0	-0.0	-0.0	-14.469045639038086	2.3892593383789062	-1003.2781372070312	-0.0	-0.0	-0.0	-0.0	-0.0	-0.0	274212.25	21737.73046875	-4891.72216796875
0.3105	-0.0	-0.0	-0.0	-0.0	-0.0	-0.0	-15.160520553588867	2.3382787704467773	-998.9227294921876	-0.0	-0.0	-0.0	-0.0	-0.0	-0.0	272672.53125	21775.23828125	-4854.978515625
0.311	-0.0	-0.0	-0.0	-0.0	-0.0	-0.0	-14.413288116455078	2.3007736206054688	-994.3489990234376	-0.0	-0.0	-0.0	-0.0	-0.0	-0.0	271108.34375	21497.03515625	-4594.98193359375
0.3115	-0.0	-0.0	-0.0	-0.0	-0.0	-0.0	-13.56847095489502	1.8169853687286377	-990.3433227539062	-0.0	-0.0	-0.0	-0.0	-0.0	-0.0	270214.71875	21520.859375	-4359.97802734375
0.312	-0.0	-0.0	-0.0	-0.0	-0.0	-0.0	-12.913661003112791	1.3041092157363892	-985.2730712890624	-0.0	-0.0	-0.0	-0.0	-0.0	-0.0	269045.03125	21034.919921875	-3829.947998046875
0.3125	-0.0	-0.0	-0.0	-0.0	-0.0	-0.0	-12.153377532958984	0.9212857484817504	-980.9173583984376	-0.0	-0.0	-0.0	-0.0	-0.0	-0.0	267441.34375	21098.173828125	-3477.738037109375
0.313	-0.0	-0.0	-0.0	-0.0	-0.0	-0.0	-11.929636001586914	0.2532290816307068	-973.95068359375	-0.0	-0.0	-0.0	-0.0	-0.0	-0.0	265143.40625	20620.849609375	-3305.070068359375
0.3135	-0.0	-0.0	-0.0	-0.0	-0.0	-0.0	-10.49887752532959	-0.2649650573730469	-967.6661987304688	-0.0	-0.0	-0.0	-0.0	-0.0	-0.0	262621.65625	20222.873046875	-2691.491943359375
0.314	-0.0	-0.0	-0.0	-0.0	-0.0	-0.0	-8.207579612731934	-0.3605833947658539	-960.6834716796876	-0.0	-0.0	-0.0	-0.0	-0.0	-0.0	260572.90625	20057.181640625	-2006.4134521484373
0.3145	-0.0	-0.0	-0.0	-0.0	-0.0	-0.0	-6.614327430725098	-1.0598602294921875	-956.828857421875	-0.0	-0.0	-0.0	-0.0	-0.0	-0.0	258963.84375	19539.50390625	-1488.17529296875
0.315	-0.0	-0.0	-0.0	-0.0	-0.0	-0.0	-6.7490234375	-2.561328887939453	-953.7007446289062	-0.0	-0.0	-0.0	-0.0	-0.0	-0.0	257420.78125	19359.0390625	-1352.23681640625
0.3155	-0.0	-0.0	-0.0	-0.0	-0.0	-0.0	-7.100214958190918	-3.755340337753296	-948.8261108398438	-0.0	-0.0	-0.0	-0.0	-0.0	-0.0	256368.828125	19398.65234375	-1413.364013671875
0.316	-0.0	-0.0	-0.0	-0.0	-0.0	-0.0	-8.250102996826172	-5.112992763519287	-947.222900390625	-0.0	-0.0	-0.0	-0.0	-0.0	-0.0	255291.09375	19356.169921875	-1609.0242919921875
0.3165	-0.0	-0.0	-0.0	-0.0	-0.0	-0.0	-8.821992874145508	-5.162109375	-944.985107421875	-0.0	-0.0	-0.0	-0.0	-0.0	-0.0	254558.90625	19093.439453125	-1876.419921875
0.317	-0.0	-0.0	-0.0	-0.0	-0.0	-0.0	-9.219915390014648	-5.293321132659912	-942.697509765625	-0.0	-0.0	-0.0	-0.0	-0.0	-0.0	253706.46875	19100.9765625	-1834.7508544921875
0.3175	-0.0	-0.0	-0.0	-0.0	-0.0	-0.0	-9.363319396972656	-5.387622833251953	-940.4569091796876	-0.0	-0.0	-0.0	-0.0	-0.0	-0.0	252387.71875	19028.623046875	-2039.531494140625
0.318	-0.0	-0.0	-0.0	-0.0	-0.0	-0.0	-9.494791984558104	-5.470492839813232	-934.3082275390624	-0.0	-0.0	-0.0	-0.0	-0.0	-0.0	251010.0	18704.62890625	-2039.671142578125
0.3185	-0.0	-0.0	-0.0	-0.0	-0.0	-0.0	-9.225921630859377	-5.433105945587158	-928.3731689453124	-0.0	-0.0	-0.0	-0.0	-0.0	-0.0	249025.0625	18196.205078125	-2039.4842529296875
0.319	-0.0	-0.0	-0.0	-0.0	-0.0	-0.0	-8.691083908081055	-5.52138614654541	-924.00439453125	-0.0	-0.0	-0.0	-0.0	-0.0	-0.0	247602.53125	17902.166015625	-2022.156982421875
0.3195	-0.0	-0.0	-0.0	-0.0	-0.0	-0.0	-8.161392211914062	-5.160787105560303	-921.2507934570312	-0.0	-0.0	-0.0	-0.0	-0.0	-0.0	246790.234375	17443.541015625	-1981.7996826171875
0.32	-0.0	-0.0	-0.0	-0.0	-0.0	-0.0	-8.11819076538086	-4.986728668212891	-919.6925659179688	-0.0	-0.0	-0.0	-0.0	-0.0	-0.0	246147.953125	17146.841796875	-1950.4207763671875
0.3205	-0.0	-0.0	-0.0	-0.0	-0.0	-0.0	-8.03166389465332	-4.4116530418396	-918.7793579101562	-0.0	-0.0	-0.0	-0.0	-0.0	-0.0	245189.71875	16774.0859375	-2159.3359375
0.321	-0.0	-0.0	-0.0	-0.0	-0.0	-0.0	-8.739049911499023	-4.414017677307129	-915.662353515625	-0.0	-0.0	-0.0	-0.0	-0.0	-0.0	244166.96875	16475.90234375	-2423.91455078125
0.3215	-0.0	-0.0	-0.0	-0.0	-0.0	-0.0	-9.097838401794434	-5.169795036315918	-913.2335205078124	-0.0	-0.0	-0.0	-0.0	-0.0	-0.0	243184.5625	16423.009765625	-2736.208740234375
0.322	-0.0	-0.0	-0.0	-0.0	-0.0	-0.0	-10.114872932434082	-6.005874633789063	-910.2092895507812	-0.0	-0.0	-0.0	-0.0	-0.0	-0.0	242334.03125	16338.8310546875	-3065.964111328125
0.3225	-0.0	-0.0	-0.0	-0.0	-0.0	-0.0	-10.87138843536377	-7.379159450531006	-909.0128173828124	-0.0	-0.0	-0.0	-0.0	-0.0	-0.0	241191.265625	16410.736328125	-3333.133544921875
0.323	-0.0	-0.0	-0.0	-0.0	-0.0	-0.0	-11.267914772033691	-8.877148628234863	-904.9880981445312	-0.0	-0.0	-0.0	-0.0	-0.0	-0.0	239524.875	16154.1005859375	-3540.2890625
0.3235	-0.0	-0.0	-0.0	-0.0	-0.0	-0.0	-11.709823608398438	-10.201899528503418	-901.172119140625	-0.0	-0.0	-0.0	-0.0	-0.0	-0.0	238438.234375	15725.6572265625	-3674.677978515625
0.324	-0.0	-0.0	-0.0	-0.0	-0.0	-0.0	-10.90866756439209	-11.21822738647461	-898.8826904296875	-0.0	-0.0	-0.0	-0.0	-0.0	-0.0	236938.78125	15043.466796875	-3437.49609375
0.3245	-0.0	-0.0	-0.0	-0.0	-0.0	-0.0	-9.53965187072754	-11.922136306762695	-896.631591796875	-0.0	-0.0	-0.0	-0.0	-0.0	-0.0	236254.875	14507.2001953125	-3302.08740234375
0.325	-0.0	-0.0	-0.0	-0.0	-0.0	-0.0	-9.625693321228027	-12.147087097167969	-898.902099609375	-0.0	-0.0	-0.0	-0.0	-0.0	-0.0	236464.078125	13976.9658203125	-3096.14208984375
0.3255	-0.0	-0.0	-0.0	-0.0	-0.0	-0.0	-8.914901733398438	-12.144761085510254	-901.517822265625	-0.0	-0.0	-0.0	-0.0	-0.0	-0.0	236795.90625	13493.4111328125	-2902.20263671875
0.326	-0.0	-0.0	-0.0	-0.0	-0.0	-0.0	-8.872906684875488	-12.319510459899902	-907.1030883789062	-0.0	-0.0	-0.0	-0.0	-0.0	-0.0	238163.21875	13032.4228515625	-2916.209716796875
0.3265	-0.0	-0.0	-0.0	-0.0	-0.0	-0.0	-8.605744361877441	-11.56934642791748	-911.64111328125	-0.0	-0.0	-0.0	-0.0	-0.0	-0.0	239149.078125	12641.1044921875	-2915.60107421875
0.327	-0.0	-0.0	-0.0	-0.0	-0.0	-0.0	-8.73971939086914	-10.244635581970217	-914.612060546875	-0.0	-0.0	-0.0	-0.0	-0.0	-0.0	240595.15625	12315.5849609375	-3004.657470703125
0.3275	-0.0	-0.0	-0.0	-0.0	-0.0	-0.0	-9.447964668273926	-8.345603942871094	-920.367919921875	-0.0	-0.0	-0.0	-0.0	-0.0	-0.0	242046.234375	12247.28125	-3272.0615234375
0.328	-0.0	-0.0	-0.0	-0.0	-0.0	-0.0	-10.557936668395996	-7.065285682678223	-926.650146484375	-0.0	-0.0	-0.0	-0.0	-0.0	-0.0	243761.9375	12129.05859375	-3925.258056640625
0.3285	-0.0	-0.0	-0.0	-0.0	-0.0	-0.0	-11.84233570098877	-5.389460563659668	-931.7117919921876	-0.0	-0.0	-0.0	-0.0	-0.0	-0.0	244960.609375	12001.47265625	-4385.298828125
0.329	-0.0	-0.0	-0.0	-0.0	-0.0	-0.0	-12.774791717529297	-4.371595859527588	-935.2012939453124	-0.0	-0.0	-0.0	-0.0	-0.0	-0.0	246127.953125	11805.6318359375	-4786.033203125
0.3295	-0.0	-0.0	-0.0	-0.0	-0.0	-0.0	-14.371285438537598	-4.371854782104492	-938.6949462890624	-0.0	-0.0	-0.0	-0.0	-0.0	-0.0	247021.171875	11572.5302734375	-5232.15625
0.33	-0.0	-0.0	-0.0	-0.0	-0.0	-0.0	-15.080809593200684	-5.608397483825684	-940.0905151367188	-0.0	-0.0	-0.0	-0.0	-0.0	-0.0	247618.8125	11010.248046875	-5544.4873046875
